# xmcd
#
# Track frame offsets: 
#        150
#        22075
#        61785
#        91961
#
# Disc length: 1611 seconds
#
# Revision: 0
# Processed by: cddbd v1.5.2PL0 Copyright (c) Steve Scherf et al.
# Submitted via: ExactAudioCopyFreeDBPlugin 1.0
#
DISCID=29064904
DTITLE=Nightmares On Wax - African Pirates - PROMO CDM
DYEAR=2006
DGENRE=Electronic
TTITLE0=African Pirates (Troubleman Remix) Edit
TTITLE1=African Pirates (Troubleman Remix)
TTITLE2=African Pirates (JD73 Remix)
TTITLE3=African Pirates (Album Version)
EXTD=
EXTT0=
EXTT1=
EXTT2=
EXTT3=
PLAYORDER=
